<svg width="18" height="19" viewBox="0 0 18 19" fill="none" xmlns="http://www.w3.org/2000/svg">
<path d="M9 18.6201C4.10449 18.6201 0.0351562 14.5508 0.0351562 9.65527C0.0351562 4.75098 4.0957 0.69043 8.99121 0.69043C13.8955 0.69043 17.9648 4.75098 17.9648 9.65527C17.9648 14.5508 13.9043 18.6201 9 18.6201ZM9 17.126C13.1484 17.126 16.4795 13.8037 16.4707 9.65527C16.4619 5.50684 13.1396 2.18457 8.99121 2.18457C4.84277 2.18457 1.53809 5.50684 1.53809 9.65527C1.53809 13.8037 4.85156 17.126 9 17.126ZM4.40332 10.6045C4.05176 10.6045 3.78809 10.3408 3.78809 9.98926C3.78809 9.64648 4.05176 9.38281 4.40332 9.38281H8.38477V4.06543C8.38477 3.72266 8.64844 3.45898 8.99121 3.45898C9.33398 3.45898 9.60645 3.72266 9.60645 4.06543V9.98926C9.60645 10.3408 9.33398 10.6045 8.99121 10.6045H4.40332Z" fill="white"/>
</svg>
