<svg width="20" height="18" viewBox="0 0 20 18" fill="none" xmlns="http://www.w3.org/2000/svg">
<path d="M10 8.59082C6.58105 8.59082 3.43457 8.125 0.208984 6.78906V6.07715C0.208984 4.27539 1.11426 3.39648 2.9248 3.39648H5.54395V2.70215C5.54395 1.0498 6.50195 0.276367 7.99609 0.276367H11.9951C13.5859 0.276367 14.4561 1.0498 14.4561 2.70215V3.39648H17.0664C18.8857 3.39648 19.7822 4.27539 19.7822 6.07715V6.78906C16.5566 8.125 13.4102 8.59082 10 8.59082ZM6.90625 3.39648H13.0938V2.60547C13.0938 1.9375 12.6982 1.55957 12.0127 1.55957H7.97852C7.29297 1.55957 6.90625 1.9375 6.90625 2.60547V3.39648ZM2.9248 17.3096C1.11426 17.3096 0.208984 16.4219 0.208984 14.6289V8.23047C2.77539 9.15332 5.20996 9.62793 7.66211 9.79492V10.5068C7.66211 11.1221 8.01367 11.4648 8.62891 11.4648H11.3623C11.9863 11.4648 12.3379 11.1221 12.3379 10.5068V9.79492C14.7812 9.62793 17.2158 9.15332 19.7822 8.23047V14.6289C19.7822 16.4219 18.8857 17.3096 17.0664 17.3096H2.9248Z" fill="white"/>
</svg>
