<svg width="20" height="19" viewBox="0 0 20 19" fill="none" xmlns="http://www.w3.org/2000/svg">
<path d="M9.19238 18.8389C8.73535 18.8389 8.40137 18.5664 8.2959 18.1182L7.83887 16.1846C7.49609 16.0703 7.1709 15.9385 6.87207 15.7979L5.18457 16.835C4.80664 17.0723 4.36719 17.0371 4.05078 16.7207L2.92578 15.5957C2.60938 15.2793 2.55664 14.8223 2.82031 14.4443L3.84863 12.7656C3.70801 12.458 3.57617 12.1416 3.47949 11.8252L1.52832 11.3594C1.08008 11.2627 0.816406 10.9287 0.816406 10.4717V8.88086C0.816406 8.43262 1.08008 8.09863 1.52832 8.00195L3.46191 7.53613C3.57617 7.17578 3.7168 6.85059 3.83105 6.57812L2.80273 4.87305C2.54785 4.49512 2.58301 4.06445 2.9082 3.74805L4.05078 2.61426C4.37598 2.30664 4.77148 2.2627 5.1582 2.48242L6.86328 3.53711C7.16211 3.37891 7.49609 3.24707 7.83887 3.13281L8.2959 1.19043C8.40137 0.742188 8.73535 0.469727 9.19238 0.469727H10.8096C11.2666 0.469727 11.6006 0.742188 11.6973 1.19043L12.1543 3.15039C12.5146 3.26465 12.8398 3.39648 13.1211 3.5459L14.8438 2.48242C15.2305 2.2627 15.6172 2.31543 15.9424 2.61426L17.0938 3.74805C17.4189 4.06445 17.4453 4.49512 17.1992 4.87305L16.1621 6.57812C16.2852 6.85059 16.4258 7.17578 16.54 7.53613L18.4736 8.00195C18.9219 8.09863 19.1855 8.43262 19.1855 8.88086V10.4717C19.1855 10.9287 18.9219 11.2627 18.4736 11.3594L16.5225 11.8252C16.4258 12.1416 16.2939 12.458 16.1445 12.7656L17.1816 14.4443C17.4365 14.8223 17.3926 15.2793 17.0762 15.5957L15.9424 16.7207C15.626 17.0371 15.1953 17.0723 14.8174 16.835L13.1211 15.7979C12.8311 15.9385 12.4971 16.0703 12.1543 16.1846L11.6973 18.1182C11.6006 18.5664 11.2666 18.8389 10.8096 18.8389H9.19238ZM10.001 12.7568C11.7061 12.7568 13.1035 11.3506 13.1035 9.64551C13.1035 7.94922 11.7061 6.55176 10.001 6.55176C8.2959 6.55176 6.89844 7.94922 6.89844 9.64551C6.89844 11.3506 8.2959 12.7568 10.001 12.7568Z" fill="white"/>
</svg>
