<svg width="16" height="15" viewBox="0 0 16 15" fill="none" xmlns="http://www.w3.org/2000/svg">
<path d="M3.40592 14.6064C3.18034 14.4355 3.12565 14.1553 3.26921 13.7383L4.71843 9.36328L0.972332 6.66308C0.616863 6.41015 0.486981 6.15039 0.575848 5.87695C0.664715 5.61035 0.917645 5.47363 1.36198 5.47363L5.9694 5.50098L7.37761 1.10547C7.51433 0.68164 7.71257 0.483398 7.99968 0.483398C8.27995 0.483399 8.48503 0.681641 8.62175 1.10547L10.0299 5.50098L14.6374 5.47363C15.0749 5.47363 15.3278 5.61035 15.4167 5.87696C15.5055 6.15039 15.3825 6.41016 15.027 6.66309L11.2741 9.36328L12.7301 13.7383C12.8737 14.1553 12.819 14.4355 12.5866 14.6064C12.361 14.7773 12.0739 14.7295 11.7253 14.4697L7.99967 11.7422L4.27409 14.4697C3.91862 14.7295 3.63835 14.7773 3.40592 14.6064ZM4.13737 13.6016C4.15788 13.6221 4.17839 13.6084 4.2194 13.5811L7.70573 10.9561C7.8903 10.8125 8.10221 10.8125 8.29362 10.9561L11.7799 13.5811C11.821 13.6084 11.8415 13.6221 11.8551 13.6016C11.8757 13.5811 11.8688 13.5742 11.8551 13.5264L10.4469 9.39063C10.3649 9.16504 10.4196 8.97363 10.6247 8.83692L14.193 6.32813C14.2341 6.30078 14.2477 6.28711 14.2409 6.25977C14.2341 6.23926 14.2135 6.23926 14.1657 6.23926L9.79753 6.29395C9.55827 6.30078 9.40104 6.19824 9.32585 5.95898L8.04753 1.78906C8.03386 1.74121 8.02018 1.7207 7.99968 1.7207C7.97917 1.7207 7.9655 1.74121 7.95183 1.78906L6.6735 5.95898C6.59831 6.19824 6.44108 6.30078 6.20182 6.29394L1.83366 6.23926C1.78581 6.23926 1.7653 6.23926 1.75846 6.25976C1.74479 6.28711 1.7653 6.30078 1.80632 6.32812L5.37468 8.83691C5.57975 8.97363 5.6276 9.16504 5.55241 9.39062L4.14421 13.5264C4.13053 13.5742 4.1237 13.5811 4.13737 13.6016Z" fill="white"/>
</svg>
